<?xml version="1.0" encoding="utf-8"?>
<!-- Generator: Adobe Illustrator 27.5.0, SVG Export Plug-In . SVG Version: 6.00 Build 0)  -->
<svg version="1.1" xmlns="http://www.w3.org/2000/svg" xmlns:xlink="http://www.w3.org/1999/xlink" x="0px" y="0px"
	 viewBox="0 0 2200 2200" style="enable-background:new 0 0 2200 2200;" xml:space="preserve">
<g id="background">
	<rect y="0" style="fill:#FFFFFF;" width="2200" height="2200"/>
</g>
<g id="Objects">
	<g>
		<path style="fill:#2DA6F7;" d="M1721.214,413.805v986.849c0,70.57-57.208,127.778-127.778,127.778h-194.8l-259.44,365.328
			c-19.165,26.987-59.232,26.987-78.397,0L801.36,1528.432H606.587c-70.594,0-127.805-57.211-127.805-127.778V413.805
			c0-70.567,57.211-127.805,127.805-127.805h986.822C1663.994,286,1721.214,343.22,1721.214,413.805z"/>
		<path style="fill:#2F89F4;" d="M1721.218,413.8v986.85c0,70.57-57.21,127.78-127.78,127.78h-194.8l-259.44,365.33
			c-9.58,13.5-24.39,20.24-39.2,20.24V286h493.41C1663.998,286,1721.218,343.22,1721.218,413.8z"/>
		<path style="fill:#2F89F4;" d="M643.724,1425.257c-34.053,0-61.757-27.704-61.757-61.757V450.951
			c0-34.053,27.704-61.757,61.757-61.757h912.548c34.053,0,61.757,27.704,61.757,61.757V1363.5
			c0,34.053-27.704,61.757-61.757,61.757H643.724z"/>
		<path style="fill:#FFFFFF;" d="M1549.829,1371.541H650.167c-7.999,0-14.484-6.485-14.484-14.484V457.394
			c0-7.999,6.485-14.484,14.484-14.484h899.663c7.999,0,14.484,6.485,14.484,14.484v899.663
			C1564.313,1365.056,1557.829,1371.541,1549.829,1371.541z"/>
		<g>
			<path style="fill:#2DA6F7;" d="M902.521,991.378l-198.279,262.24c-15.871,20.991-0.898,51.084,25.418,51.084h396.557
				c26.316,0,41.289-30.093,25.418-51.084l-198.279-262.24C940.607,974.515,915.271,974.515,902.521,991.378z"/>
			<path style="fill:#2DA6F7;" d="M1470.335,1304.696h-299.027c1.613-2.281,3.067-4.711,4.34-7.269
				c9.391-18.887,7.332-41.064-5.39-57.893l-109.686-145.073l132.011-174.582c12.744-16.871,38.083-16.871,50.837,0l252.339,333.736
				C1511.622,1274.604,1496.65,1304.696,1470.335,1304.696z"/>
		</g>
		<circle style="fill:#2DA6F7;" cx="864.28" cy="681.602" r="93.925"/>
	</g>
</g>
</svg>
